<svg xmlns="http://www.w3.org/2000/svg" viewBox="0 0 883.16 326.47"><defs><style>.cls-1{fill:#fff;}.cls-2{fill:none;stroke:#fff;stroke-miterlimit:10;stroke-width:8px;}</style></defs><g id="Capa_2" data-name="Capa 2"><g id="Capa_6" data-name="Capa 6"><g id="Logo"><path class="cls-1" d="M75.61,287.39V110.17h65q29.79,0,47.22,15.4T205.27,167q0,20.51-10.53,33.3T166.09,214.8l46.31,72.59H158.84L120.12,212v75.42Zm56.62-142.68H120.12v49h13.24q12.79,0,19.76-6.46t7-18.45q0-12.24-6.85-18.18T132.23,144.71Z"/><path class="cls-1" d="M220.1,287.39l60.81-177.22h54.92l60.81,177.22H349.53l-7.24-25.71H274.12L267,287.39Zm64.21-59.11H332.1l-23.9-82.1Z"/><path class="cls-1" d="M417,287.39V109.72h54.47q18.69,0,31.71,2.83a71.09,71.09,0,0,1,22.65,8.83,83.67,83.67,0,0,1,30.06,32.16q10.25,19.59,10.25,45.07,0,24.57-10.42,44t-30.91,33q-8.83,5.77-22.26,8.77a142.76,142.76,0,0,1-31.08,3Zm44.51-35.9H475q21.28,0,33.75-14.27t12.45-38.61q0-25-12.51-39t-34.82-13.92H461.53Z"/><path class="cls-1" d="M597.41,287.39V110.17h45V287.39Z"/><path class="cls-1" d="M858.88,198.83c0,50.85-41.45,92.07-92.57,92.07s-92.58-41.22-92.58-92.07,41.45-92.06,92.58-92.06S858.88,148,858.88,198.83ZM759,254.8l45.27-108.72v-3.21h-75V166h39.56L730.77,254.8Z"/><rect class="cls-2" x="4" y="78.59" width="875.16" height="243.88" rx="115"/><g id="barras"><g id="Barras-2" data-name="Barras"><rect class="cls-1" x="94.39" y="48.59" width="26.12" height="15.56"/><rect class="cls-1" x="138.84" y="33.03" width="26.12" height="31.12"/><rect class="cls-1" x="183.29" y="7.74" width="26.12" height="56.41"/><rect class="cls-1" x="316.63" y="45.22" width="26.12" height="18.93" transform="translate(659.39 109.37) rotate(-180)"/><rect class="cls-1" x="272.18" y="38.04" width="26.12" height="26.11" transform="translate(570.49 102.19) rotate(-180)"/><rect class="cls-1" x="227.74" y="22.27" width="26.12" height="41.88" transform="translate(481.6 86.42) rotate(-180)"/></g><g id="Barras-3" data-name="Barras"><rect class="cls-1" x="363.79" y="43.21" width="26.12" height="20.94"/><rect class="cls-1" x="408.24" y="33.03" width="26.12" height="31.12"/><rect class="cls-1" x="452.68" y="19.3" width="26.12" height="44.85"/><rect class="cls-1" x="586.02" y="45.44" width="26.12" height="18.71" transform="translate(1198.17 109.58) rotate(-180)"/><rect class="cls-1" x="541.58" y="38.04" width="26.12" height="26.11" transform="translate(1109.28 102.19) rotate(-180)"/><rect class="cls-1" x="497.13" y="26.72" width="26.12" height="37.43" transform="translate(1020.38 90.87) rotate(-180)"/></g><g id="Barras-4" data-name="Barras"><rect class="cls-1" x="629.3" y="26.72" width="26.12" height="37.43"/><rect class="cls-1" x="673.75" width="26.12" height="64.15"/><rect class="cls-1" x="718.19" y="23.33" width="26.12" height="40.82"/><rect class="cls-1" x="762.64" y="48.59" width="26.12" height="15.56" transform="translate(1551.4 112.74) rotate(-180)"/></g></g></g></g></g></svg>